<?xml version="1.0" standalone="no"?>
<!DOCTYPE svg PUBLIC "-//W3C//DTD SVG 20010904//EN"
 "http://www.w3.org/TR/2001/REC-SVG-20010904/DTD/svg10.dtd">
<svg version="1.0" xmlns="http://www.w3.org/2000/svg"
 width="409.000000pt" height="383.000000pt" viewBox="0 0 409.000000 383.000000"
 preserveAspectRatio="xMidYMid meet">

<g transform="translate(0.000000,383.000000) scale(0.100000,-0.100000)"
fill="#000000" stroke="none">
<path d="M1831 3799 c-234 -25 -491 -99 -706 -203 -574 -279 -963 -781 -1071
-1381 -25 -140 -25 -450 0 -590 167 -923 1012 -1595 2006 -1595 994 0 1839
672 2006 1595 25 140 25 450 0 590 -108 600 -497 1102 -1071 1381 -354 172
-769 244 -1164 203z m839 -495 c100 -29 190 -84 271 -165 90 -90 150 -187 192
-307 27 -78 30 -100 30 -207 0 -103 -3 -130 -25 -192 -14 -40 -46 -101 -71
-135 -86 -121 -152 -162 -480 -299 -143 -60 -263 -111 -265 -114 -7 -7 41 -76
82 -117 87 -87 224 -118 369 -83 39 9 242 87 450 172 393 160 638 255 644 250
6 -6 -67 -211 -80 -223 -6 -6 -129 -58 -272 -114 -143 -57 -336 -135 -430
-173 -210 -86 -276 -105 -390 -113 -159 -12 -298 36 -411 139 -47 43 -125 145
-136 179 -3 8 -25 3 -74 -17 -38 -16 -73 -32 -78 -36 -5 -5 34 -112 89 -246
110 -266 126 -326 126 -463 1 -260 -124 -451 -367 -560 -326 -148 -635 -56
-839 250 -72 107 -111 238 -114 381 -4 200 96 378 272 486 34 21 177 86 317
144 170 71 254 111 253 120 -2 8 -115 286 -253 618 -138 332 -248 606 -245
609 6 6 193 -49 211 -63 9 -7 355 -825 461 -1092 3 -8 27 -2 76 18 40 17 75
33 79 37 4 4 -35 111 -88 237 -113 271 -134 354 -129 500 10 252 148 442 395
542 75 30 139 49 195 57 53 7 179 -3 235 -20z"/>
<path d="M2388 3121 c-102 -28 -176 -69 -244 -136 -75 -74 -105 -143 -111
-260 -7 -113 12 -183 119 -442 l91 -221 56 25 c31 14 76 32 101 41 113 39 321
128 381 163 120 69 185 169 196 296 11 145 -44 286 -159 409 -118 125 -271
170 -430 125z"/>
<path d="M1765 1655 c-57 -18 -398 -161 -465 -195 -131 -66 -209 -174 -218
-301 -5 -76 11 -189 35 -248 21 -50 107 -164 154 -205 22 -19 67 -48 101 -66
79 -42 202 -53 300 -25 73 19 173 72 225 118 117 103 158 281 107 462 -17 62
-187 475 -194 474 -3 -1 -23 -7 -45 -14z"/>
</g>
</svg>
